HIERARCHY
ROOT root
{
	OFFSET 0.000000 0.000000 0.000000
	CHANNELS 6 Xposition Yposition Zposition Zrotation Yrotation Xrotation
	JOINT lhip
	{
		OFFSET 0.058581 -0.082280 -0.017664
		CHANNELS 3 Zrotation Yrotation Xrotation
		JOINT lknee
		{
			OFFSET 0.043451 -0.386469 0.008037
			CHANNELS 3 Zrotation Yrotation Xrotation
			JOINT lankle
			{
				OFFSET -0.014790 -0.426874 -0.037428
				CHANNELS 3 Zrotation Yrotation Xrotation
				JOINT ltoe
				{
					OFFSET 0.041054 -0.060286 0.122042
					CHANNELS 3 Zrotation Yrotation Xrotation
					End Site
					{
						OFFSET 0.000000 0.000000 0.000000
					}
				}
			}
		}
	}
	JOINT rhip
	{
		OFFSET -0.060310 -0.090513 -0.013543
		CHANNELS 3 Zrotation Yrotation Xrotation
		JOINT rknee
		{
			OFFSET -0.043257 -0.383688 -0.004843
			CHANNELS 3 Zrotation Yrotation Xrotation
			JOINT rankle
			{
				OFFSET 0.019056 -0.420046 -0.034562
				CHANNELS 3 Zrotation Yrotation Xrotation
				JOINT rtoe
				{
					OFFSET -0.034840 -0.062106 0.130323
					CHANNELS 3 Zrotation Yrotation Xrotation
					End Site
					{
						OFFSET 0.000000 0.000000 0.000000
					}
				}
			}
		}
	}
	JOINT lowerback
	{
		OFFSET 0.004439 0.124404 -0.038385
		CHANNELS 3 Zrotation Yrotation Xrotation
		JOINT upperback
		{
			OFFSET 0.004488 0.137956 0.026820
			CHANNELS 3 Zrotation Yrotation Xrotation
			JOINT chest
			{
				OFFSET -0.002265 0.056032 0.002855
				CHANNELS 3 Zrotation Yrotation Xrotation
				JOINT lowerneck
				{
					OFFSET -0.013390 0.211636 -0.033468
					CHANNELS 3 Zrotation Yrotation Xrotation
					JOINT upperneck
					{
						OFFSET 0.010113 0.088937 0.050410
						CHANNELS 3 Zrotation Yrotation Xrotation
						End Site
						{
							OFFSET 0.000000 0.000000 0.000000
						}
					}
				}
				JOINT lclavicle
				{
					OFFSET 0.071702 0.114000 -0.018898
					CHANNELS 3 Zrotation Yrotation Xrotation
					JOINT lshoulder
					{
						OFFSET 0.122921 0.045205 -0.019046
						CHANNELS 3 Zrotation Yrotation Xrotation
						JOINT lelbow
						{
							OFFSET 0.255332 -0.015649 -0.022946
							CHANNELS 3 Zrotation Yrotation Xrotation
							JOINT lwrist
							{
								OFFSET 0.265709 0.012698 -0.007375
								CHANNELS 3 Zrotation Yrotation Xrotation
								End Site
								{
									OFFSET 0.000000 0.000000 0.000000
								}
							}
						}
					}
				}
				JOINT rclavicle
				{
					OFFSET -0.082954 0.112472 -0.023707
					CHANNELS 3 Zrotation Yrotation Xrotation
					JOINT rshoulder
					{
						OFFSET -0.113228 0.046853 -0.008472
						CHANNELS 3 Zrotation Yrotation Xrotation
						JOINT relbow
						{
							OFFSET -0.260127 -0.014369 -0.031269
							CHANNELS 3 Zrotation Yrotation Xrotation
							JOINT rwrist
							{
								OFFSET -0.269108 0.006794 -0.006027
								CHANNELS 3 Zrotation Yrotation Xrotation
								End Site
								{
									OFFSET 0.000000 0.000000 0.000000
								}
							}
						}
					}
				}
			}
		}
	}
}
MOTION
Frames: 14
Frame Time: 0.033333
-1.582369 0.299877 1.023807 90.654075 -3.319706 85.604247 -5.690766 -1.386446 -1.004986 -5.279920 -8.537458 0.799130 5.111804 7.736090 -1.602166 0.000000 -0.000000 0.000000 -5.880568 -2.290092 -5.405493 -3.163542 -0.830029 58.780827 3.186204 -14.516386 0.176704 0.000000 -0.000000 0.000000 -5.329132 2.292346 14.605533 -0.936430 0.808116 -4.346651 -0.880877 0.147285 1.773424 4.115360 7.861736 -16.995964 -1.696744 1.121417 7.618442 -25.660264 4.046551 -0.030290 -47.107212 -6.477839 7.166533 5.629944 -24.849120 4.432524 -4.588749 -4.998812 -7.885809 29.665405 3.438058 -1.595825 50.104802 10.165480 13.051314 -11.632371 10.616305 -15.474920 6.043586 3.293993 -5.867188 
-1.559592 0.304808 1.025282 92.878159 -2.861718 84.780369 -5.933546 -0.772352 1.717451 -4.848972 -10.507339 0.124014 5.552730 7.676557 -2.005922 0.000000 -0.000000 0.000000 -5.424209 -1.845339 -8.292843 -2.189793 -1.798192 60.857331 3.857128 -13.842762 -1.152242 0.000000 -0.000000 0.000000 -5.236348 0.989236 14.965759 -0.598313 0.502956 -4.472353 -0.889750 -0.537554 1.712992 4.344545 8.301187 -15.733105 -1.698242 1.058988 8.225660 -25.348614 3.049959 -0.136782 -46.601058 -7.788822 7.121213 6.022549 -25.277970 3.769387 -4.113070 -4.398621 -6.696921 29.568566 3.300886 -2.059072 50.281850 9.560206 13.121663 -12.151661 11.696581 -15.512421 6.302792 3.532474 -5.879367 
-1.536972 0.308929 1.026320 94.829411 -2.294886 84.239752 -5.801043 -0.169876 3.961786 -4.587031 -12.314368 -0.081046 5.626256 7.875059 -2.933862 0.000000 -0.000000 0.000000 -5.093862 -1.525803 -11.146925 -1.178880 -2.739854 60.454796 4.612187 -12.893897 -2.310713 0.000000 -0.000000 0.000000 -5.022562 -0.245775 15.221119 -0.295924 0.187955 -4.676436 -0.807140 -1.154447 1.714414 4.555283 8.728091 -15.380703 -1.843312 0.763958 9.019460 -25.241138 2.339966 -0.707539 -45.968597 -9.011072 7.211873 6.125721 -25.818428 3.138883 -3.416029 -4.504435 -6.176082 29.768466 2.959260 -2.562018 50.198021 9.146995 13.192410 -12.617768 12.773228 -15.435585 5.909798 3.647133 -5.691054 
-1.515287 0.312517 1.027173 96.857485 -1.524002 83.280799 -5.126845 0.429100 6.479790 -4.466358 -13.978721 0.102541 5.251795 7.457337 -4.102950 0.000000 -0.000000 0.000000 -4.967990 -1.547614 -13.085337 -1.156237 -4.396110 57.630558 5.131482 -12.759730 -3.970022 0.000000 -0.000000 0.000000 -4.627207 -1.270773 16.070742 0.026073 -0.104262 -4.542055 -0.532620 -1.814821 1.613027 4.513633 9.193037 -14.861645 -1.757698 0.663370 9.336654 -25.050528 1.166352 -0.639720 -45.702744 -10.450540 7.030305 6.561878 -26.657784 2.215825 -2.996405 -4.416648 -6.169792 29.778120 2.971153 -3.028009 49.940359 8.912833 12.809640 -12.981339 13.486567 -15.631203 5.831938 3.817909 -5.578020 
-1.493578 0.315455 1.027828 98.436191 -0.967248 82.740697 -4.330684 1.226940 8.607625 -4.591586 -15.529175 0.123347 4.621699 6.942474 -5.325229 0.000000 -0.000000 0.000000 -5.110759 -1.935980 -15.002029 -1.583196 -5.918608 53.171629 5.748517 -13.024997 -4.898723 0.000000 -0.000000 0.000000 -4.230322 -2.250805 16.880791 0.141068 -0.540352 -4.851190 -0.332721 -2.326314 1.486271 4.464081 9.484135 -14.686082 -1.704956 0.768694 9.854401 -24.989780 0.722495 -0.827146 -45.229355 -11.628751 6.846788 6.462044 -27.936923 1.664036 -1.949739 -4.601795 -6.264375 30.029966 2.817855 -3.251028 49.697635 8.773704 12.676599 -13.358193 14.386583 -15.735732 5.146955 3.850463 -5.171407 
-1.472978 0.317679 1.027514 99.728874 -0.473984 82.452090 -3.452302 1.969167 10.443630 -4.667155 -16.631657 -0.035848 4.199424 6.258676 -6.215700 0.000000 -0.000000 0.000000 -5.356912 -2.654917 -16.873904 -1.856352 -7.434037 47.211327 6.308390 -13.133499 -5.706316 0.000000 -0.000000 0.000000 -3.809337 -2.841110 17.486044 0.182428 -0.785476 -5.017936 -0.049250 -2.809932 1.247309 4.293003 9.653945 -14.352606 -1.580610 0.824744 9.969751 -24.652680 -0.083338 -0.630498 -45.384499 -12.938039 6.714667 6.649767 -28.804019 1.072423 -1.118698 -4.960256 -6.906307 30.006818 2.816517 -3.080427 49.595316 8.485946 12.534002 -13.961486 15.289116 -15.842358 4.410718 3.895714 -5.076839 
-1.451528 0.319550 1.027252 100.704097 -0.274574 82.470771 -3.031233 2.627307 12.258829 -4.324066 -18.129094 -0.550439 3.902754 6.206838 -6.671096 0.000000 -0.000000 0.000000 -5.509201 -3.424154 -18.638757 -1.802198 -8.281442 40.425328 7.308469 -13.254627 -5.553263 0.000000 -0.000000 0.000000 -3.256492 -3.630898 18.428831 0.165947 -0.895882 -5.322988 0.143583 -3.960299 1.679142 3.111576 9.849338 -17.292280 -1.657421 1.154131 10.706966 -25.176232 1.053751 -3.020132 -44.901856 -13.669705 6.874571 5.317445 -30.531725 2.255127 -0.192261 -5.413239 -7.280061 29.935035 2.094607 -4.276910 49.657172 9.245633 13.003327 -13.544950 16.345934 -15.521833 4.021416 4.308114 -4.174064 
-1.431710 0.320443 1.024666 101.104430 -0.012627 82.661498 -2.486589 2.957465 13.403210 -4.246776 -18.096035 -0.443411 3.839558 5.690711 -7.774667 0.000000 -0.000000 0.000000 -5.413605 -3.734849 -20.210455 -1.564040 -9.366571 32.689067 7.892956 -12.421157 -4.273651 0.000000 -0.000000 0.000000 -3.373147 -3.409797 17.933508 0.120773 -1.070915 -5.152856 0.525593 -3.440587 1.096188 4.073406 9.664339 -14.477990 -1.152391 0.775251 10.137723 -24.268633 -1.087355 -0.608634 -45.871277 -15.230291 7.014876 6.856898 -30.912387 0.023431 0.034959 -5.475067 -7.228223 30.308805 2.594514 -3.112253 49.122872 8.530035 12.362881 -14.305260 16.789226 -16.285866 4.497214 4.073642 -4.810568 
-1.410529 0.321263 1.022286 101.334949 0.059704 83.273445 -2.282495 3.258653 14.147108 -4.072985 -18.587229 -0.274129 4.071793 6.009283 -8.788396 0.000000 -0.000000 0.000000 -5.221671 -3.908168 -21.437988 -0.987164 -9.881194 24.242306 8.921631 -11.589227 -2.834340 0.000000 -0.000000 0.000000 -2.988964 -3.779646 18.165834 -0.026105 -1.171746 -5.879280 0.640828 -3.616385 0.945816 3.912064 9.468487 -14.455607 -0.794530 0.837321 10.567498 -24.249149 -0.883613 -0.673719 -46.226417 -15.725925 7.411711 6.480279 -32.236799 0.316927 0.637666 -5.618931 -7.507559 30.392465 2.172682 -3.015088 49.250585 8.597592 12.461282 -14.266788 17.367131 -16.062538 4.122503 4.036973 -4.702668 
-1.388697 0.321409 1.018822 101.480405 -0.023818 83.738964 -2.199967 3.515563 14.868534 -3.971403 -18.751605 0.416563 3.622390 5.605893 -9.956457 0.000000 -0.000000 0.000000 -4.903010 -3.999304 -22.120471 -0.488659 -9.723442 16.036085 9.773258 -10.954475 -1.496613 0.000000 -0.000000 0.000000 -2.783564 -3.879650 18.251040 -0.139488 -1.343202 -6.113642 0.699536 -3.918652 0.981250 3.690928 9.808027 -14.891625 -0.717047 1.029105 10.629811 -24.192389 -0.758322 -0.856507 -46.570187 -16.347947 7.979126 6.123379 -33.102612 0.964790 1.175115 -6.867463 -7.325579 30.579956 1.879689 -3.273786 49.555384 8.842496 12.805828 -14.305830 17.384508 -15.898926 3.589771 4.230554 -4.951713 
-1.365387 0.320757 1.014311 101.481774 -0.305361 84.299295 -2.281600 3.560205 15.571770 -4.005178 -18.760066 1.106035 3.825808 5.800386 -11.012119 0.000000 -0.000000 0.000000 -4.631195 -3.735547 -22.600478 -0.401680 -8.913646 9.183255 10.684302 -10.310631 -0.949377 0.000000 -0.000000 0.000000 -2.852440 -3.775334 17.704674 -0.196951 -1.579978 -5.752300 0.756509 -4.232429 1.062547 3.317533 10.618675 -15.094001 -0.335260 1.545896 10.514948 -24.184761 -1.145748 -0.323225 -46.438016 -16.521006 8.440641 5.972241 -34.283238 1.628355 1.316851 -7.325570 -6.905266 30.925180 1.828022 -3.122799 49.733320 8.971584 12.862058 -14.426615 17.760334 -15.783056 3.466442 4.129063 -5.129509 
-1.339826 0.319763 1.008831 101.845637 -0.611954 83.965311 -1.861023 4.328968 17.075285 -4.702326 -18.977332 2.352153 4.787628 5.944327 -12.647752 0.000000 -0.000000 0.000000 -4.934853 -3.823554 -22.327619 -0.078411 -9.878401 6.576600 11.048590 -8.881100 -1.242590 0.000000 -0.000000 0.000000 -3.272623 -3.626061 18.860436 0.901865 -2.583024 -6.195289 1.219961 -4.188259 -0.370208 9.400400 0.367303 -9.501427 -2.467355 -5.598948 13.051319 -24.737329 -1.437640 2.208639 -46.414400 -16.447935 7.554518 5.713008 -35.146168 2.670732 -1.313511 -6.848285 -5.724644 28.015580 1.943451 -1.226732 52.414263 8.841403 10.963194 -14.651397 17.971914 -14.738474 4.143968 3.862742 -5.081337 
-1.313870 0.319442 1.005166 102.693164 -0.694483 84.891291 -1.951452 4.209853 17.479783 -4.504424 -18.875050 3.137526 5.066093 6.824555 -13.181250 0.000000 -0.000000 0.000000 -5.050129 -3.502935 -23.546445 -0.222364 -9.383244 8.096271 10.528097 -10.798378 -0.614440 0.000000 -0.000000 0.000000 -2.774879 -5.083834 17.374412 -0.125761 -2.304589 -5.429224 0.474075 -4.565618 1.317763 3.630214 10.627626 -15.504207 -0.638808 1.704415 10.172693 -23.930063 -1.295822 0.386599 -46.310599 -16.238118 8.929350 4.532725 -35.043558 5.039900 -0.047007 -7.267436 -5.676277 31.359104 1.751621 -3.135050 50.396162 8.745570 12.919325 -13.978485 17.536988 -15.071009 3.742395 3.831539 -5.105283 
-1.286065 0.317858 1.001638 103.874865 -0.726649 85.184624 -1.409434 4.369911 18.694617 -4.328739 -19.600435 3.929255 4.901778 6.814823 -13.312519 0.000000 -0.000000 0.000000 -4.973215 -3.264754 -23.877803 -0.991722 -10.614039 12.136434 8.886584 -12.294619 -0.071194 0.000000 -0.000000 0.000000 -2.727101 -5.888109 17.287210 0.148568 -2.491666 -5.210936 0.433526 -5.097890 1.356842 3.737792 10.643547 -15.607190 -0.926876 2.077613 10.275503 -24.188277 -1.371784 0.839195 -45.802967 -16.016032 9.049482 3.697013 -34.781841 7.193744 -0.966725 -7.226607 -4.436835 31.645047 1.555084 -3.302827 50.513128 8.472414 12.825143 -13.578757 16.908401 -14.879095 4.015955 3.837726 -5.123967 
